<svg width="659" height="165" viewBox="0 0 659 165" fill="none" xmlns="http://www.w3.org/2000/svg">
<g clip-path="url(#clip0_1_81)">
<path d="M24.9883 112.86C32.4122 101.423 39.6529 90.2968 47.4185 78.3645C50.5855 84.2155 51 85 56.0607 94.606C56.5159 95.5493 55.7101 97.414 55.0023 98.5521C51.6142 104 48.7155 108.452 45.5 113.5C44.5444 115 42.9555 117.633 41.5 120C46.0655 120 59.2351 120.083 66 120C68 119.975 69.8476 121.565 70 122C70.1524 122.435 77.0321 135.069 78.3617 137.228C55.2186 137.228 32.7224 137.228 9.09619 137.228C14.5855 128.822 19.6953 120.997 24.9883 112.86Z" fill="#C71585"/>
<path d="M59.9737 57.8209C66.4879 47.5905 72.8305 37.6817 79.4984 27.2648C88.0206 40.6827 96.2282 53.5654 104.34 66.5C104.84 67.2976 104.85 69.5656 104.64 70C102.066 75.3229 99.2899 80.1112 96.2023 86.1C90.4338 77.1115 85.0992 68.844 79.4804 60.0888C73.9218 68.7849 68.6611 77.015 62.8563 86.0963C59.6665 80.2603 57.1942 75.3737 54.5 70C54.0785 69.1594 53.9244 67.5181 54.5 66.5C56.0524 63.7544 58.1071 60.8073 59.9737 57.8209Z" fill="#A56EFF"/>
<path d="M124.447 97.4066C133.145 110.788 141.637 123.871 150.58 137.648C143.762 137.648 137.687 137.806 131.633 137.52C130.359 137.46 128.794 136.015 127.987 134.795C119.913 122.576 111.925 110.3 104.064 97.9434C103.352 96.8231 103.123 94.7761 103.648 93.5947C105.939 88.4407 108.592 83.4474 111.544 77.5349C116.032 84.4531 120.137 90.7803 124.447 97.4066Z" fill="#A56EFF"/>
<path d="M103 119.905C104.5 119.905 106.315 121 107 122.02C109 125 116.183 134.69 118.187 137.796C108.751 137.796 100.5 137.796 92 137.796C90.8842 137.769 89.1468 136.289 88.4451 135.181C85.4313 130.419 82.6321 125.522 79.2983 119.905C84.386 119.905 97.9532 119.904 103 119.905Z" fill="#A56EFF"/>
<path d="M229.592 79.192C229.592 84.952 227.704 89.592 223.928 93.112C220.152 96.632 214.488 98.392 206.936 98.392H193.4V127H186.68V59.896H206.936C214.424 59.896 220.056 61.656 223.832 65.176C227.672 68.696 229.592 73.368 229.592 79.192ZM206.936 92.632C217.432 92.632 222.68 88.152 222.68 79.192C222.68 74.712 221.432 71.32 218.936 69.016C216.44 66.712 212.44 65.56 206.936 65.56H193.4V92.632H206.936ZM288.292 98.104C288.292 100.408 288.228 102.168 288.1 103.384H244.612C244.804 107.352 245.764 110.744 247.492 113.56C249.22 116.376 251.492 118.52 254.308 119.992C257.124 121.4 260.196 122.104 263.524 122.104C267.876 122.104 271.524 121.048 274.468 118.936C277.476 116.824 279.46 113.976 280.42 110.392H287.524C286.244 115.512 283.492 119.704 279.268 122.968C275.108 126.168 269.86 127.768 263.524 127.768C258.596 127.768 254.18 126.68 250.276 124.504C246.372 122.264 243.3 119.128 241.06 115.096C238.884 111 237.796 106.232 237.796 100.792C237.796 95.352 238.884 90.584 241.06 86.488C243.236 82.392 246.276 79.256 250.18 77.08C254.084 74.904 258.532 73.816 263.524 73.816C268.516 73.816 272.868 74.904 276.58 77.08C280.356 79.256 283.236 82.2 285.22 85.912C287.268 89.56 288.292 93.624 288.292 98.104ZM281.476 97.912C281.54 94.008 280.74 90.68 279.076 87.928C277.476 85.176 275.268 83.096 272.452 81.688C269.636 80.28 266.564 79.576 263.236 79.576C258.244 79.576 253.988 81.176 250.468 84.376C246.948 87.576 244.996 92.088 244.612 97.912H281.476ZM297.514 100.696C297.514 95.32 298.57 90.616 300.682 86.584C302.858 82.488 305.834 79.352 309.61 77.176C313.45 74.936 317.77 73.816 322.57 73.816C327.562 73.816 331.85 74.968 335.434 77.272C339.082 79.576 341.706 82.52 343.306 86.104V74.584H350.026V127H343.306V115.384C341.642 118.968 338.986 121.944 335.338 124.312C331.754 126.616 327.466 127.768 322.474 127.768C317.738 127.768 313.45 126.648 309.61 124.408C305.834 122.168 302.858 119 300.682 114.904C298.57 110.808 297.514 106.072 297.514 100.696ZM343.306 100.792C343.306 96.568 342.442 92.856 340.714 89.656C338.986 86.456 336.618 83.992 333.61 82.264C330.666 80.536 327.402 79.672 323.818 79.672C320.106 79.672 316.778 80.504 313.834 82.168C310.89 83.832 308.554 86.264 306.826 89.464C305.162 92.6 304.33 96.344 304.33 100.696C304.33 104.984 305.162 108.76 306.826 112.024C308.554 115.224 310.89 117.688 313.834 119.416C316.778 121.08 320.106 121.912 323.818 121.912C327.402 121.912 330.666 121.048 333.61 119.32C336.618 117.592 338.986 115.128 340.714 111.928C342.442 108.728 343.306 105.016 343.306 100.792ZM362.296 100.792C362.296 95.352 363.384 90.616 365.56 86.584C367.736 82.488 370.744 79.352 374.584 77.176C378.424 74.936 382.808 73.816 387.736 73.816C394.2 73.816 399.512 75.416 403.672 78.616C407.896 81.816 410.616 86.168 411.832 91.672H404.632C403.736 87.896 401.784 84.952 398.776 82.84C395.832 80.664 392.152 79.576 387.736 79.576C384.216 79.576 381.048 80.376 378.232 81.976C375.416 83.576 373.176 85.976 371.512 89.176C369.912 92.312 369.112 96.184 369.112 100.792C369.112 105.4 369.912 109.304 371.512 112.504C373.176 115.704 375.416 118.104 378.232 119.704C381.048 121.304 384.216 122.104 387.736 122.104C392.152 122.104 395.832 121.048 398.776 118.936C401.784 116.76 403.736 113.752 404.632 109.912H411.832C410.616 115.288 407.896 119.608 403.672 122.872C399.448 126.136 394.136 127.768 387.736 127.768C382.808 127.768 378.424 126.68 374.584 124.504C370.744 122.264 367.736 119.128 365.56 115.096C363.384 111 362.296 106.232 362.296 100.792ZM471.667 98.104C471.667 100.408 471.603 102.168 471.475 103.384H427.987C428.179 107.352 429.139 110.744 430.867 113.56C432.595 116.376 434.867 118.52 437.683 119.992C440.499 121.4 443.571 122.104 446.899 122.104C451.251 122.104 454.899 121.048 457.843 118.936C460.851 116.824 462.835 113.976 463.795 110.392H470.899C469.619 115.512 466.867 119.704 462.643 122.968C458.483 126.168 453.235 127.768 446.899 127.768C441.971 127.768 437.555 126.68 433.651 124.504C429.747 122.264 426.675 119.128 424.435 115.096C422.259 111 421.171 106.232 421.171 100.792C421.171 95.352 422.259 90.584 424.435 86.488C426.611 82.392 429.651 79.256 433.555 77.08C437.459 74.904 441.907 73.816 446.899 73.816C451.891 73.816 456.243 74.904 459.955 77.08C463.731 79.256 466.611 82.2 468.595 85.912C470.643 89.56 471.667 93.624 471.667 98.104ZM464.851 97.912C464.915 94.008 464.115 90.68 462.451 87.928C460.851 85.176 458.643 83.096 455.827 81.688C453.011 80.28 449.939 79.576 446.611 79.576C441.619 79.576 437.363 81.176 433.843 84.376C430.323 87.576 428.371 92.088 427.987 97.912H464.851Z" fill="#A56EFF"/>
<path d="M558.152 41.528L524.232 131H513.992L480.072 41.528H489.8L519.112 121.272L548.68 41.528H558.152ZM598.751 131.896C592.863 131.896 587.658 130.872 583.135 128.824C578.698 126.776 575.199 123.917 572.639 120.248C570.079 116.579 568.714 112.483 568.543 107.96H578.015C578.442 112.312 580.362 116.152 583.775 119.48C587.188 122.723 592.18 124.344 598.751 124.344C604.81 124.344 609.588 122.808 613.087 119.736C616.671 116.579 618.463 112.611 618.463 107.832C618.463 103.992 617.482 100.92 615.519 98.616C613.556 96.2267 611.124 94.4773 608.223 93.368C605.322 92.1733 601.311 90.8933 596.191 89.528C590.218 87.9067 585.482 86.328 581.983 84.792C578.484 83.256 575.498 80.8667 573.023 77.624C570.548 74.3813 569.311 69.9867 569.311 64.44C569.311 59.832 570.506 55.736 572.895 52.152C575.284 48.4827 578.655 45.624 583.007 43.576C587.359 41.528 592.351 40.504 597.983 40.504C606.26 40.504 612.916 42.552 617.951 46.648C623.071 50.6587 626.015 55.864 626.783 62.264H617.055C616.458 58.5947 614.452 55.352 611.039 52.536C607.626 49.6347 603.018 48.184 597.215 48.184C591.839 48.184 587.359 49.6347 583.775 52.536C580.191 55.352 578.399 59.2347 578.399 64.184C578.399 67.9387 579.38 70.968 581.343 73.272C583.306 75.576 585.738 77.3253 588.639 78.52C591.626 79.7147 595.636 80.9947 600.671 82.36C606.474 83.9813 611.167 85.6027 614.751 87.224C618.335 88.76 621.364 91.1493 623.839 94.392C626.314 97.6347 627.551 101.987 627.551 107.448C627.551 111.629 626.442 115.597 624.223 119.352C622.004 123.107 618.719 126.136 614.367 128.44C610.015 130.744 604.81 131.896 598.751 131.896Z" fill="#C71585"/>
</g>
<defs>
<clipPath id="clip0_1_81">
<rect width="659" height="165" fill="white"/>
</clipPath>
</defs>
</svg>
