<svg width="494" height="165" viewBox="0 0 494 165" fill="none" xmlns="http://www.w3.org/2000/svg">
<g clip-path="url(#clip0_1_88)">
<path d="M64.592 79.192C64.592 84.952 62.704 89.592 58.928 93.112C55.152 96.632 49.488 98.392 41.936 98.392H28.4V127H21.68V59.896H41.936C49.424 59.896 55.056 61.656 58.832 65.176C62.672 68.696 64.592 73.368 64.592 79.192ZM41.936 92.632C52.432 92.632 57.68 88.152 57.68 79.192C57.68 74.712 56.432 71.32 53.936 69.016C51.44 66.712 47.44 65.56 41.936 65.56H28.4V92.632H41.936ZM123.292 98.104C123.292 100.408 123.228 102.168 123.1 103.384H79.6115C79.8035 107.352 80.7635 110.744 82.4915 113.56C84.2195 116.376 86.4915 118.52 89.3075 119.992C92.1235 121.4 95.1955 122.104 98.5235 122.104C102.876 122.104 106.524 121.048 109.468 118.936C112.476 116.824 114.46 113.976 115.42 110.392H122.524C121.244 115.512 118.492 119.704 114.268 122.968C110.108 126.168 104.86 127.768 98.5235 127.768C93.5955 127.768 89.1795 126.68 85.2755 124.504C81.3715 122.264 78.2995 119.128 76.0595 115.096C73.8835 111 72.7955 106.232 72.7955 100.792C72.7955 95.352 73.8835 90.584 76.0595 86.488C78.2355 82.392 81.2755 79.256 85.1795 77.08C89.0835 74.904 93.5315 73.816 98.5235 73.816C103.516 73.816 107.868 74.904 111.58 77.08C115.356 79.256 118.236 82.2 120.22 85.912C122.268 89.56 123.292 93.624 123.292 98.104ZM116.476 97.912C116.54 94.008 115.74 90.68 114.076 87.928C112.476 85.176 110.268 83.096 107.452 81.688C104.636 80.28 101.564 79.576 98.2355 79.576C93.2435 79.576 88.9875 81.176 85.4675 84.376C81.9475 87.576 79.9955 92.088 79.6115 97.912H116.476ZM132.514 100.696C132.514 95.32 133.57 90.616 135.682 86.584C137.858 82.488 140.834 79.352 144.61 77.176C148.45 74.936 152.77 73.816 157.57 73.816C162.562 73.816 166.85 74.968 170.434 77.272C174.082 79.576 176.706 82.52 178.306 86.104V74.584H185.026V127H178.306V115.384C176.642 118.968 173.986 121.944 170.338 124.312C166.754 126.616 162.466 127.768 157.474 127.768C152.738 127.768 148.45 126.648 144.61 124.408C140.834 122.168 137.858 119 135.682 114.904C133.57 110.808 132.514 106.072 132.514 100.696ZM178.306 100.792C178.306 96.568 177.442 92.856 175.714 89.656C173.986 86.456 171.618 83.992 168.61 82.264C165.666 80.536 162.402 79.672 158.818 79.672C155.106 79.672 151.778 80.504 148.834 82.168C145.89 83.832 143.554 86.264 141.826 89.464C140.162 92.6 139.33 96.344 139.33 100.696C139.33 104.984 140.162 108.76 141.826 112.024C143.554 115.224 145.89 117.688 148.834 119.416C151.778 121.08 155.106 121.912 158.818 121.912C162.402 121.912 165.666 121.048 168.61 119.32C171.618 117.592 173.986 115.128 175.714 111.928C177.442 108.728 178.306 105.016 178.306 100.792ZM197.296 100.792C197.296 95.352 198.384 90.616 200.56 86.584C202.736 82.488 205.744 79.352 209.584 77.176C213.424 74.936 217.808 73.816 222.736 73.816C229.2 73.816 234.512 75.416 238.672 78.616C242.896 81.816 245.616 86.168 246.832 91.672H239.632C238.736 87.896 236.784 84.952 233.776 82.84C230.832 80.664 227.152 79.576 222.736 79.576C219.216 79.576 216.048 80.376 213.232 81.976C210.416 83.576 208.176 85.976 206.512 89.176C204.912 92.312 204.112 96.184 204.112 100.792C204.112 105.4 204.912 109.304 206.512 112.504C208.176 115.704 210.416 118.104 213.232 119.704C216.048 121.304 219.216 122.104 222.736 122.104C227.152 122.104 230.832 121.048 233.776 118.936C236.784 116.76 238.736 113.752 239.632 109.912H246.832C245.616 115.288 242.896 119.608 238.672 122.872C234.448 126.136 229.136 127.768 222.736 127.768C217.808 127.768 213.424 126.68 209.584 124.504C205.744 122.264 202.736 119.128 200.56 115.096C198.384 111 197.296 106.232 197.296 100.792ZM306.667 98.104C306.667 100.408 306.603 102.168 306.475 103.384H262.987C263.179 107.352 264.139 110.744 265.867 113.56C267.595 116.376 269.867 118.52 272.683 119.992C275.499 121.4 278.571 122.104 281.899 122.104C286.251 122.104 289.899 121.048 292.843 118.936C295.851 116.824 297.835 113.976 298.795 110.392H305.899C304.619 115.512 301.867 119.704 297.643 122.968C293.483 126.168 288.235 127.768 281.899 127.768C276.971 127.768 272.555 126.68 268.651 124.504C264.747 122.264 261.675 119.128 259.435 115.096C257.259 111 256.171 106.232 256.171 100.792C256.171 95.352 257.259 90.584 259.435 86.488C261.611 82.392 264.651 79.256 268.555 77.08C272.459 74.904 276.907 73.816 281.899 73.816C286.891 73.816 291.243 74.904 294.955 77.08C298.731 79.256 301.611 82.2 303.595 85.912C305.643 89.56 306.667 93.624 306.667 98.104ZM299.851 97.912C299.915 94.008 299.115 90.68 297.451 87.928C295.851 85.176 293.643 83.096 290.827 81.688C288.011 80.28 284.939 79.576 281.611 79.576C276.619 79.576 272.363 81.176 268.843 84.376C265.323 87.576 263.371 92.088 262.987 97.912H299.851Z" fill="#A56EFF"/>
<path d="M393.152 41.528L359.232 131H348.992L315.072 41.528H324.8L354.112 121.272L383.68 41.528H393.152ZM433.751 131.896C427.863 131.896 422.658 130.872 418.135 128.824C413.698 126.776 410.199 123.917 407.639 120.248C405.079 116.579 403.714 112.483 403.543 107.96H413.015C413.442 112.312 415.362 116.152 418.775 119.48C422.188 122.723 427.18 124.344 433.751 124.344C439.81 124.344 444.588 122.808 448.087 119.736C451.671 116.579 453.463 112.611 453.463 107.832C453.463 103.992 452.482 100.92 450.519 98.616C448.556 96.2267 446.124 94.4773 443.223 93.368C440.322 92.1733 436.311 90.8933 431.191 89.528C425.218 87.9067 420.482 86.328 416.983 84.792C413.484 83.256 410.498 80.8667 408.023 77.624C405.548 74.3813 404.311 69.9867 404.311 64.44C404.311 59.832 405.506 55.736 407.895 52.152C410.284 48.4827 413.655 45.624 418.007 43.576C422.359 41.528 427.351 40.504 432.983 40.504C441.26 40.504 447.916 42.552 452.951 46.648C458.071 50.6587 461.015 55.864 461.783 62.264H452.055C451.458 58.5947 449.452 55.352 446.039 52.536C442.626 49.6347 438.018 48.184 432.215 48.184C426.839 48.184 422.359 49.6347 418.775 52.536C415.191 55.352 413.399 59.2347 413.399 64.184C413.399 67.9387 414.38 70.968 416.343 73.272C418.306 75.576 420.738 77.3253 423.639 78.52C426.626 79.7147 430.636 80.9947 435.671 82.36C441.474 83.9813 446.167 85.6027 449.751 87.224C453.335 88.76 456.364 91.1493 458.839 94.392C461.314 97.6347 462.551 101.987 462.551 107.448C462.551 111.629 461.442 115.597 459.223 119.352C457.004 123.107 453.719 126.136 449.367 128.44C445.015 130.744 439.81 131.896 433.751 131.896Z" fill="#C71585"/>
</g>
<defs>
<clipPath id="clip0_1_88">
<rect width="494" height="165" fill="white"/>
</clipPath>
</defs>
</svg>
